<svg width="210" height="210" viewBox="0 0 210 210" fill="none" xmlns="http://www.w3.org/2000/svg">
<path d="M138.843 33.0804C138.843 33.0804 113.636 65.0101 73.3038 45.9639C32.9717 26.9178 -7.35993 78.4541 27.37 109.823C62.0999 141.193 28.1141 158.43 51.709 177.655C78.526 199.506 101.873 155.197 123.159 165.28C170.139 187.534 204.944 178.724 197.101 152.957C183.335 107.725 165.732 104.783 179.176 81.255C192.62 57.7274 162.948 8.80925 138.843 33.0804Z" fill="#DAE8F2"/>
<path d="M136.296 91.4537C136.296 91.4537 161.951 89.7877 163.95 64.4662C161.617 62.8003 158.286 52.805 163.95 51.8055C169.614 50.8061 173.612 51.8055 173.612 51.8055C173.612 51.8055 183.94 59.8017 170.946 65.7989C170.613 69.1308 170.28 98.7835 143.626 111.777C116.972 124.771 136.296 91.4537 136.296 91.4537Z" fill="#879AA8"/>
<path d="M178.66 35.5429L168.375 33.6687C167.804 33.5647 167.258 33.943 167.154 34.5135L163.448 54.8519C163.344 55.4224 163.722 55.9692 164.292 56.0731L174.578 57.9473C175.148 58.0513 175.695 57.6731 175.799 57.1026L179.505 36.7641C179.609 36.1936 179.231 35.6468 178.66 35.5429Z" fill="#003B65"/>
<path d="M149.196 109.832C149.196 123.945 142.946 136.606 133.057 145.202C124.545 152.59 113.649 156.651 102.378 156.636C85.7326 156.636 71.1262 147.96 62.8234 134.873C58.3442 127.792 55.8469 119.639 55.592 111.264C55.3371 102.89 57.334 94.5997 61.3744 87.2595C65.4148 79.9193 71.3506 73.7976 78.5628 69.533C85.7751 65.2684 93.9995 63.017 102.378 63.0137C124.088 63.0137 142.36 77.7935 147.637 97.8507C148.68 101.759 149.204 105.787 149.196 109.832Z" fill="#94ACBE"/>
<path d="M133.234 145.189C124.722 152.577 113.826 156.638 102.555 156.623C85.9092 156.623 71.3028 147.947 63 134.86C70.3033 128.876 74.4213 129.516 77.1667 130.542C80.1653 131.675 81.8311 136.753 90.4938 131.755C99.1565 126.757 106.153 138.752 109.485 140.751C122.812 139.791 129.755 142.63 133.234 145.189Z" fill="#003B65"/>
<path d="M147.812 97.8369C128.022 102.528 129.421 91.2667 127.475 84.4432C125.476 77.4465 124.143 79.7786 111.816 89.4412C99.4882 99.1037 98.1553 83.444 97.9291 80.7787C97.6891 78.1132 97.156 77.1142 90.8257 77.9C84.4954 78.6858 82.8294 73.7819 77.4986 77.1137C75.2863 78.4997 72.2744 77.8733 69.5156 76.6606C73.852 72.3207 79.0028 68.8799 84.6723 66.5357C90.3418 64.1915 96.4184 62.9899 102.553 63.0001C124.263 62.9999 142.535 77.7797 147.812 97.8369Z" fill="#003B65"/>
<path d="M42.3004 82.2886C42.1175 82.9241 42.1271 83.5996 42.328 84.2296C42.529 84.8596 42.9122 85.4159 43.4293 85.8281C43.9464 86.2404 44.5741 86.49 45.2331 86.5454C45.892 86.6009 46.5526 86.4597 47.1314 86.1398C47.7101 85.8198 48.1809 85.3354 48.4844 84.7478C48.7878 84.1603 48.9102 83.4959 48.8361 82.8388C48.7619 82.1816 48.4946 81.5613 48.0679 81.0561C47.6412 80.5509 47.0742 80.1835 46.4388 80.0005C45.5866 79.7553 44.6719 79.8586 43.8958 80.2877C43.1198 80.7167 42.5459 81.4365 42.3004 82.2886Z" fill="#003B65"/>
<path d="M49.7818 75.3136C49.7735 75.4519 49.7492 75.5888 49.7094 75.7215C49.6382 75.969 49.5188 76.1999 49.358 76.4011C49.1973 76.6022 48.9983 76.7695 48.7726 76.8934C48.5482 77.0184 48.3012 77.0974 48.0459 77.1258C47.7907 77.1542 47.5323 77.1314 47.286 77.0588C46.478 76.8258 45.632 76.7544 44.7964 76.8487C43.9609 76.9429 43.1521 77.2011 42.4164 77.6083C41.6806 78.0155 41.0324 78.5638 40.5089 79.2217C39.9853 79.8797 39.5966 80.6345 39.365 81.4429C39.2937 81.6898 39.1744 81.9203 39.014 82.1211C38.8536 82.322 38.6553 82.4892 38.4302 82.6134C37.9757 82.8642 37.4402 82.9242 36.9415 82.7802C36.4428 82.6362 36.0217 82.2999 35.7709 81.8454C35.5202 81.3909 35.4602 80.8555 35.6042 80.3567C35.975 79.0537 36.601 77.8373 37.4459 76.7783C38.2908 75.7192 39.3377 74.8386 40.5259 74.1876C41.4164 73.6934 42.3742 73.3318 43.3692 73.1143L49.7818 75.3136Z" fill="#003B65"/>
<path d="M34.9237 70.2266L39.5894 71.8261C39.4895 71.87 39.3923 71.9197 39.2982 71.9749C37.819 72.7865 36.5157 73.8835 35.4636 75.2025C34.4115 76.5214 33.6317 78.0361 33.1692 79.6586C33.0995 79.9068 32.9815 80.1387 32.8218 80.3411C32.6621 80.5434 32.464 80.7122 32.2389 80.8377C32.0137 80.9633 31.766 81.043 31.5099 81.0724C31.2538 81.1018 30.9945 81.0802 30.7467 81.009C30.499 80.9377 30.2678 80.8182 30.0665 80.6573C29.8651 80.4964 29.6976 80.2972 29.5735 80.0713C29.4494 79.8453 29.3712 79.5971 29.3434 79.3408C29.3156 79.0846 29.3388 78.8253 29.4116 78.5781C30.3444 75.2927 32.2696 72.3759 34.9237 70.2266Z" fill="#003B65"/>
<path d="M51.4887 69.5305C51.3442 70.0285 51.0086 70.4491 50.5552 70.7006C50.1018 70.9522 49.5674 71.0143 49.0684 70.8734C48.1634 70.6104 47.2321 70.4479 46.2915 70.3888L38.8379 67.8402C42.4061 66.276 46.4108 66.0165 50.1511 67.1071C50.6494 67.2519 51.0699 67.5882 51.3207 68.0425C51.5714 68.4967 51.6318 69.0318 51.4887 69.5305Z" fill="#003B65"/>
<path d="M28.0626 67.8818L32.1507 69.2766C29.6886 71.629 27.8987 74.5957 26.9657 77.8707C26.8946 78.1182 26.7752 78.3491 26.6144 78.5502C26.4537 78.7514 26.2547 78.9187 26.029 79.0426C25.8056 79.1684 25.5592 79.2484 25.3045 79.2777C25.0497 79.3071 24.7917 79.2853 24.5455 79.2135C24.2983 79.143 24.0674 79.0245 23.8662 78.8646C23.6649 78.7048 23.4971 78.5069 23.3724 78.2821C23.2477 78.0573 23.1685 77.8102 23.1395 77.5548C23.1104 77.2994 23.132 77.0408 23.203 76.7938C24.1413 73.4992 25.8013 70.4549 28.0626 67.8818Z" fill="#003B65"/>
<path d="M53.275 63.3265C53.1301 63.8246 52.7938 64.2451 52.3395 64.4958C51.8853 64.7464 51.3502 64.8068 50.8515 64.6637C48.4164 63.9562 45.8652 63.7385 43.3454 64.0233C40.8257 64.308 38.3874 65.0896 36.1716 66.3228C35.9481 66.4481 35.7306 66.5703 35.5217 66.7094L30.9375 65.1374C33.8424 62.8005 37.2664 61.1959 40.9211 60.459C44.5757 59.7221 48.354 59.8743 51.9375 60.9029C52.4357 61.0477 52.8563 61.3841 53.107 61.8383C53.3577 62.2926 53.4181 62.8277 53.275 63.3265Z" fill="#003B65"/>
<path d="M23.5705 68.1503L23.5705 68.1504C23.2554 69.0711 23.7463 70.0728 24.667 70.3879L49.948 79.0401C50.8687 79.3551 51.8704 78.8642 52.1855 77.9436L52.1855 77.9435C52.5006 77.0229 52.0097 76.0211 51.0891 75.706L25.808 67.0538C24.8874 66.7388 23.8856 67.2297 23.5705 68.1503Z" fill="#003B65"/>
</svg>
