<svg width="131" height="57" viewBox="0 0 131 57" fill="none" xmlns="http://www.w3.org/2000/svg">
<path d="M1 56L3.38889 55.2109C5.77778 54.4218 10.5556 52.8437 15.3333 48.8249C20.1111 44.8061 24.8889 38.3467 29.6667 37.6415C34.4444 36.9363 39.2222 41.9854 44 42.7798C48.7778 43.5741 53.5556 40.1138 58.3333 35.4527C63.1111 30.7915 67.8889 24.9295 72.6667 22.3863C77.4444 19.843 82.2222 20.6185 87 19.9208C91.7778 19.2231 96.5556 17.0521 101.333 13.4509C106.111 9.8497 110.889 4.81819 115.667 2.60819C120.444 0.39819 125.222 1.0097 127.611 1.31545L130 1.6212" stroke="#18A0FB"/>
</svg>
