<svg width="282" height="92" viewBox="0 0 282 92" fill="none" xmlns="http://www.w3.org/2000/svg">
<rect width="281.999" height="91.8719" fill="#003B65"/>
<path d="M196.722 75.7314C196.905 74.7752 197.08 73.8145 197.282 72.863C197.709 70.8323 198.146 68.8062 198.586 66.7755C198.972 64.9907 199.381 63.2105 199.762 61.4212C200.258 59.0946 200.736 56.7679 201.232 54.4413C201.724 52.1512 202.238 49.8701 202.734 47.5799C202.922 46.7148 203.074 45.8452 203.34 44.9983C203.671 45.1076 203.878 44.9892 203.915 44.6523C203.947 44.3427 203.781 44.1833 203.451 44.2334C203.63 43.4048 203.814 42.5761 203.974 41.7429C204.002 41.6154 204.039 41.5061 204.108 41.4014C204.438 41.5107 204.645 41.3923 204.682 41.0554C204.714 40.7458 204.548 40.5864 204.218 40.6365C204.397 39.8488 204.631 39.0703 204.728 38.2735C204.792 37.7499 204.379 37.3082 204.213 36.8165C204.163 36.5206 204.121 36.2201 203.961 35.9514C203.961 35.2867 203.781 34.6493 203.731 33.9891C203.634 32.7825 203.639 31.5896 203.74 30.3831C203.91 28.2932 204.48 26.2944 204.971 24.2729C205.293 22.9616 206.083 22.3743 207.341 22.3469C207.993 22.3333 208.2 22.1785 208.315 21.5274C208.646 19.6789 209.091 17.8485 209.495 16.0137C209.661 16.0137 209.826 16 209.991 16C224.382 16 238.773 16 253.163 16C253.328 16 253.494 16.0046 253.659 16.0091C253.223 17.9806 252.773 19.952 252.35 21.9326C251.532 25.7526 250.729 29.5772 249.916 33.3972C249.47 35.5007 249.029 37.6042 248.57 39.7031C248.078 41.9569 247.573 44.2107 247.077 46.4644C247.027 46.683 247.105 46.8469 247.334 46.8423C248.432 46.815 249.525 46.9061 250.623 46.7877C251.707 46.6693 252.791 46.6784 253.765 47.2885C253.811 47.3932 253.857 47.5025 253.903 47.6072C253.903 47.6436 253.903 47.6801 253.903 47.7165C253.889 47.8076 253.87 47.9032 253.994 47.935V48.1536C253.93 48.1718 253.82 48.1764 253.806 48.2128C253.425 49.2281 252.543 49.7016 251.629 50.075C250.086 50.7033 248.46 50.981 246.792 50.9674C246.319 50.9674 246.057 51.0766 245.965 51.5319C245.713 51.6185 245.433 51.6959 245.465 52.0419C245.483 52.2422 245.543 52.438 245.823 52.397C245.63 53.7083 245.244 54.974 244.969 56.2671C244.937 56.4083 245.088 56.5266 244.969 56.6541C244.684 56.7042 244.372 56.7361 244.362 57.114C244.358 57.328 244.404 57.5556 244.716 57.5238C244.509 58.4344 244.385 59.3632 244.087 60.251C243.834 60.3375 243.554 60.4149 243.586 60.761C243.605 60.9613 243.664 61.1571 243.944 61.1161C243.71 62.5549 243.343 63.9618 242.984 65.3732C242.732 65.4597 242.452 65.5371 242.484 65.8831C242.502 66.0835 242.562 66.2793 242.842 66.2383C242.562 67.5313 242.286 68.8199 241.988 70.1084C241.956 70.2495 242.107 70.3679 241.988 70.4954C241.703 70.5455 241.391 70.5773 241.381 70.9552C241.377 71.1692 241.423 71.3969 241.735 71.365C241.487 72.8311 241.019 74.2516 240.881 75.7359C240.642 75.7359 240.403 75.7268 240.164 75.7268C225.916 75.7268 211.668 75.7268 197.42 75.7268C197.181 75.7268 196.942 75.7177 196.703 75.7177L196.722 75.7314ZM240.426 44.9027C240.32 43.901 240.247 42.9404 240.109 41.9888C239.967 41.0235 239.815 40.0537 239.36 39.1613C238.506 37.4904 237.261 36.0926 236.081 34.6538C235.764 34.2623 235.649 33.9117 235.759 33.4245C235.87 32.9373 235.925 32.4365 235.58 31.9812C234.799 30.9431 233.94 29.9687 233.045 29.0308C231.864 27.7969 230.574 26.6723 229.329 25.5022C228.507 24.7282 227.611 24.3321 226.532 24.1636C225.457 23.9951 224.368 23.9451 223.298 23.8039C222.122 23.6537 221.024 23.6855 220.092 24.4004C219.228 25.0651 218.324 24.9467 217.382 24.8056C215.76 24.5597 214.144 24.3093 212.522 24.0634C211.08 23.8449 209.633 23.6628 208.195 23.4169C207.107 23.2302 206.39 23.5808 206.073 24.5916C205.458 26.554 205.067 28.5527 204.842 30.5971C204.659 32.2635 204.751 33.898 205.146 35.5098C205.835 38.3236 207.3 40.6638 209.569 42.5306C211.19 43.8646 213.009 44.8435 214.975 45.4992C218.301 46.6056 221.745 47.0745 225.264 47.0973C226.32 47.1018 226.867 46.6329 227.335 45.8589C227.427 45.7041 227.492 45.5356 227.574 45.3762C227.936 44.6599 227.827 44.0483 227.248 43.5414C227.193 43.4913 227.152 43.4275 227.092 43.3911C226.917 43.2773 226.927 43.1225 227.023 42.9859C227.248 42.6626 227.478 42.3394 227.735 42.0434C229.007 40.6183 230.652 40.0993 232.512 40.2176C232.971 40.245 233.454 40.2677 233.885 40.6092C234.974 41.4652 236.095 42.2756 237.234 43.0587C238.235 43.7462 239.236 44.4429 240.426 44.8982V44.9027ZM226.481 74.0376C226.375 73.2226 226.449 72.5169 226.623 71.8749C226.849 71.0235 227.28 70.2222 227.629 69.4026C228.171 68.1323 228.741 66.8939 228.585 65.4278C228.488 64.54 228.424 63.6294 228.447 62.7279C228.447 62.5685 228.373 62.4684 228.295 62.3409C227.046 60.3239 225.838 58.275 224.538 56.2899C224.175 55.7344 224.189 55.2973 224.345 54.7145C224.589 53.8085 225.011 52.9297 224.924 51.9508C224.85 51.1495 224.768 50.3436 224.708 49.5423C224.694 49.3328 224.63 49.2418 224.419 49.26C224.033 49.301 223.661 49.1598 223.284 49.1598C222.062 49.1598 220.864 49.0005 219.656 48.8365C217.368 48.5269 215.196 47.8713 213.142 46.8514C211.999 46.2823 210.919 45.6084 209.923 44.798C208.581 43.7098 207.433 42.4577 206.418 41.0782C206.276 40.8824 206.23 40.5227 205.931 40.5819C205.637 40.6411 205.793 40.9825 205.747 41.2011C205.237 43.4913 204.714 45.7769 204.227 48.0716C203.423 51.8461 202.647 55.6251 201.843 59.3996C201.797 59.6182 201.797 59.7775 202.013 59.823C202.693 59.9733 203.373 60.1918 204.085 59.946C206.661 59.0536 209.247 58.1748 211.82 57.2642C212.169 57.1413 212.412 57.1823 212.692 57.3781C216.381 59.9778 220.069 62.5685 223.762 65.1638C224.244 65.5052 224.253 65.5052 223.73 65.8285C222.375 66.6708 221.02 67.504 219.619 68.3737C221.906 70.2586 224.152 72.1071 226.504 74.0467L226.481 74.0376ZM212.132 58.6757V59.3131C212.132 60.9112 212.132 62.5093 212.132 64.1075C212.132 64.285 212.15 64.458 212.072 64.6402C211.131 66.8529 210.226 69.0839 209.252 71.283C208.921 72.0297 208.737 72.7036 209.284 73.4048C209.371 73.5186 209.44 73.6506 209.486 73.7872C209.601 74.1333 209.817 74.2289 210.184 74.2289C212.554 74.2107 214.92 74.2198 217.29 74.2152C217.387 74.2152 217.501 74.2607 217.593 74.1333C217.474 73.901 217.368 73.6552 217.235 73.423C216.872 72.8038 216.656 72.1754 216.969 71.4606C217.051 71.2694 217.051 71.0417 217.093 70.8323C217.584 68.4055 218.062 65.9788 218.581 63.5611C218.654 63.2287 218.581 63.0603 218.333 62.8872C217.24 62.1314 216.169 61.3438 215.053 60.6244C214.102 60.0143 213.243 59.2767 212.136 58.6802L212.132 58.6757ZM232.448 41.8522C231.166 41.752 230.206 42.1572 229.435 43.0132C229.209 43.2636 229.209 43.4549 229.49 43.7144C230.5 44.6477 231.607 45.4491 232.755 46.1912C234.804 47.5116 237.004 48.5178 239.351 49.2053C240.683 49.5969 242.043 49.8701 243.421 49.993C244.537 50.0932 245.653 50.1524 246.792 50.0431C248.29 49.902 249.764 49.7062 251.193 49.2418C251.707 49.0733 252.198 48.8229 252.571 48.4177C252.929 48.0261 252.865 47.7985 252.345 47.6755C251.735 47.5344 251.119 47.6937 250.508 47.7028C248.744 47.7347 246.985 47.7802 245.231 47.4114C241.483 46.6238 238.134 44.9983 235.02 42.8402C234.207 42.2756 233.449 41.5835 232.448 41.8476V41.8522ZM240.421 51.1085C240.536 50.6122 240.178 50.6077 239.944 50.5758C239.337 50.4847 238.754 50.3163 238.166 50.1387C236.885 49.7563 235.658 49.2463 234.515 48.5634C234.432 48.5133 234.345 48.4723 234.262 48.5087C234.101 48.5861 234.253 48.6817 234.253 48.7728C234.253 49.4558 234.538 50.1068 234.496 50.7944C234.404 52.4016 234.064 53.9769 233.807 55.5614C233.472 57.6239 233.206 59.6819 233.293 61.7717C233.348 63.1103 233.885 64.2395 235.043 64.9862C235.902 65.5371 236.848 65.7739 237.854 65.3823C238.097 65.2867 238.456 65.2275 238.46 64.8587C238.46 64.4808 238.46 64.1075 238.419 63.725C238.364 63.2287 238.125 63.1877 237.716 63.2014C236.949 63.2287 236.609 62.9555 236.366 62.2179C236.136 61.5304 236.48 60.9294 236.692 60.3284C237.491 58.0747 238.598 55.9438 239.59 53.772C239.99 52.8979 240.389 52.0191 240.426 51.1131L240.421 51.1085Z" fill="#E0AD0F"/>
<path d="M253.765 47.2976C253.843 47.2976 253.916 47.2976 253.994 47.2976V47.6254C253.962 47.6254 253.935 47.6254 253.903 47.6254C253.857 47.5207 253.811 47.4114 253.765 47.3067V47.2976Z" fill="white"/>
<path d="M253.999 47.9441C253.875 47.9077 253.889 47.8167 253.907 47.7256C253.939 47.7256 253.971 47.7256 253.999 47.7256V47.9441Z" fill="#F7EBC3"/>
<path d="M253.999 47.7256C253.967 47.7256 253.935 47.7256 253.907 47.7256C253.907 47.6892 253.907 47.6528 253.907 47.6163C253.939 47.6163 253.967 47.6163 253.999 47.6163V47.7256Z" fill="#FBF4DE"/>
<path d="M104.38 57.4099C103.934 57.3416 103.76 57.0457 103.847 56.645C104.664 52.9571 105.39 49.2554 106.162 45.5584C106.897 42.0343 107.664 38.5194 108.362 34.9862C108.693 33.3107 109.088 31.6443 109.455 29.9733C109.487 29.8185 109.538 29.6682 109.584 29.518C110.048 29.3905 110.277 28.9989 110.558 28.662C111.109 28.6529 111.665 28.6392 112.216 28.6301C113.13 28.6301 114.044 28.6301 114.958 28.6301C115.587 28.6301 116.212 28.6301 116.841 28.6301C118.495 28.7075 120.153 28.8214 121.71 29.4178C123.377 30.0552 124.806 30.9932 125.375 32.7962C125.752 33.98 125.678 35.2002 125.407 36.384C125.04 37.9866 124.291 39.4117 123.046 40.5318C122.422 41.0918 121.733 41.5699 120.966 41.9296C120.759 42.0252 120.557 42.1254 120.208 42.2938C121.149 42.4577 121.917 42.6945 122.638 43.0587C124.08 43.7781 124.783 45.0211 124.976 46.5236C125.407 49.8792 123.979 52.5336 121.517 54.6735C119.808 56.1578 117.778 57.0411 115.491 57.3325C114.981 57.3963 114.48 57.4145 113.975 57.4054C113.208 57.2096 112.432 57.3553 111.66 57.3234C110.117 57.3234 108.573 57.3234 107.035 57.3234C106.153 57.3553 105.266 57.2005 104.389 57.4008L104.38 57.4099ZM116.074 32.0176C115.449 31.8765 114.825 31.8309 114.205 32.0358C114.191 32.2134 114.099 32.3682 114.067 32.5458C113.883 33.5474 113.663 34.5445 113.456 35.5417C113.111 37.1944 112.804 38.8563 112.409 40.4999C112.271 41.0736 112.487 41.1146 112.923 41.0782C113.015 41.0691 113.107 41.0645 113.194 41.0599C113.819 41.0599 114.448 41.0599 115.073 41.0599C115.22 41.0645 115.371 41.0964 115.509 41.0691C118.614 40.4498 120.511 37.5905 120.336 34.845C120.277 33.8935 119.85 33.0511 118.885 32.5913C117.989 32.1679 117.052 32.0039 116.074 32.0176ZM113.304 54.0316C113.814 54.0771 114.31 54.0316 114.815 53.9496C116.028 53.7584 117.14 53.3167 118.012 52.4744C119.413 51.1267 119.923 49.4011 119.781 47.5162C119.707 46.5691 119.285 45.7405 118.375 45.2032C117.447 44.6523 116.451 44.4793 115.403 44.4383C114.88 44.238 114.329 44.3518 113.796 44.3564C113.079 44.3609 112.353 44.2334 111.642 44.4383C111.573 44.666 111.481 44.8936 111.435 45.1258C111.077 46.8332 110.723 48.5452 110.374 50.2525C110.14 51.409 109.914 52.5655 109.685 53.722C109.625 53.9132 109.538 54.068 109.896 54.0589C111.031 54.027 112.165 54.0361 113.304 54.0316Z" fill="white"/>
<path d="M149.457 36.7072C149.903 36.7391 150.018 36.9577 149.931 37.3856C149.462 39.6713 149.026 41.966 148.557 44.2516C148.144 46.2959 147.698 48.3312 147.28 50.3709C147.115 51.1677 146.968 51.969 146.835 52.7704C146.715 53.4898 147.202 54.0999 147.955 54.1545C148.286 54.1773 148.346 54.3321 148.341 54.6052C148.327 55.4294 148.084 56.2125 147.882 56.9956C147.831 57.1959 147.648 57.419 147.427 57.4145C146.366 57.4145 145.296 57.5374 144.267 57.1094C142.99 56.5813 142.471 55.5705 142.352 54.2182C141.773 54.7737 141.272 55.3201 140.694 55.7936C139.274 56.9546 137.667 57.6148 135.852 57.8698C134.378 58.0792 132.922 58.0337 131.512 57.5966C129.477 56.9637 128.296 55.5159 127.727 53.5216C127.378 52.2923 127.295 51.0357 127.419 49.7881C127.699 46.9789 128.306 44.238 129.67 41.7201C130.933 39.389 132.688 37.5769 135.283 36.7072C136.858 36.1791 138.47 36.0516 140.133 36.2474C141.075 36.3567 141.952 36.6116 142.756 37.0715C143.463 37.4767 144.06 38.0367 144.465 38.7561C144.538 38.8881 144.621 38.9883 144.768 39.093C144.993 38.5057 145.195 37.9183 145.443 37.3538C145.585 37.0214 145.797 36.7209 146.228 36.7118C147.303 36.7118 148.373 36.7118 149.448 36.7118L149.457 36.7072ZM139.049 39.5711C136.996 39.3571 135.526 40.2814 134.516 41.966C133.923 42.954 133.501 44.0194 133.23 45.1486C132.688 47.3796 132.086 49.5969 132.375 51.9235C132.527 53.1346 133.23 54.2046 134.571 54.496C135.081 54.6053 135.581 54.5961 136.087 54.587C138.608 54.5461 140.446 53.3532 141.608 51.1996C142.999 48.6134 143.564 45.8179 143.367 42.8994C143.275 41.5562 142.678 40.4362 141.327 39.8989C140.606 39.6121 139.844 39.4482 139.049 39.5711Z" fill="white"/>
<path d="M175 57.4463C174.477 57.3598 174.504 56.9501 174.573 56.6086C174.982 54.6189 175.423 52.6383 175.841 50.6487C176.231 48.8001 176.608 46.947 176.985 45.0939C177.398 43.0861 177.798 41.0782 178.216 39.0703C178.569 37.3583 178.941 35.6509 179.3 33.939C179.456 33.1968 179.589 32.4456 179.75 31.7034C179.786 31.5395 179.892 31.4029 180.071 31.3164C181.789 30.4787 183.498 29.6273 185.284 28.744C185.105 29.6227 184.935 30.4286 184.77 31.239C184.38 33.124 183.985 35.009 183.594 36.8985C183.218 38.7151 182.845 40.5318 182.46 42.3485C182.262 43.2955 182.046 44.2425 181.84 45.1896C181.817 45.2988 181.812 45.4263 181.931 45.4764C182.111 45.5538 182.17 45.3671 182.258 45.2806C184.416 43.1543 186.566 41.0144 188.729 38.8927C189.349 38.2826 189.924 37.6224 190.631 37.1034C190.962 36.862 191.306 36.7163 191.72 36.7209C192.914 36.7209 194.103 36.7209 195.298 36.7254C195.435 36.7254 195.642 36.6162 195.702 36.862C195.748 37.0396 195.67 37.1853 195.523 37.2809C194.701 37.8273 194.099 38.6104 193.355 39.2433C192.289 40.1448 191.334 41.1783 190.296 42.1208C189.033 43.2682 187.779 44.4201 186.548 45.5993C186.24 45.8953 185.905 46.1821 185.574 46.4599C185.317 46.6784 185.367 46.8514 185.523 47.0882C187.586 50.248 189.639 53.4124 191.692 56.5722C192.087 57.1777 192.055 57.328 191.517 57.4463C190.048 57.4463 188.573 57.4463 187.103 57.4463C186.626 57.4054 186.336 57.1185 186.107 56.727C184.729 54.4004 183.337 52.0738 181.954 49.7472C181.757 49.4148 181.564 49.0733 181.389 48.7273C181.339 48.6226 181.279 48.5998 181.183 48.6043C181.054 48.6043 181.063 48.7045 181.05 48.791C180.535 51.318 180.03 53.8449 179.502 56.3718C179.401 56.859 179.332 57.419 178.629 57.4463H174.991H175Z" fill="white"/>
<path d="M152.42 57.4464C151.878 57.328 151.653 57.0275 151.763 56.5403C152.59 52.8478 153.348 49.1462 154.074 45.4354C154.363 43.9602 154.882 42.5215 154.841 40.9871C154.827 40.4908 154.735 40.1311 154.106 40.081C153.476 40.031 153.307 39.7441 153.408 39.1249C153.504 38.5512 153.614 37.9775 153.743 37.4084C153.83 37.0305 154.074 36.7482 154.478 36.73C155.566 36.6799 156.655 36.689 157.693 37.0578C158.575 37.372 159.167 38.0458 159.241 39.134C159.246 39.2069 159.218 39.3116 159.255 39.3435C159.383 39.4573 159.269 39.7123 159.448 39.7487C159.627 39.7851 159.719 39.5848 159.82 39.4709C160.61 38.533 161.45 37.6543 162.521 37.0032C163.177 36.6025 163.899 36.4158 164.629 36.302C166.053 36.0835 167.454 36.2383 168.818 36.7163C170.798 37.413 171.969 38.7743 172.359 40.8095C172.676 42.4486 172.341 44.0376 171.996 45.6312C171.592 47.4797 171.193 49.3283 170.825 51.1814C170.683 51.9053 170.421 52.6429 170.715 53.385C170.88 53.8039 171.105 54.1909 171.679 54.1773C172.07 54.1636 172.166 54.496 172.125 54.7783C172.033 55.3884 171.882 55.9894 171.735 56.5904C171.555 57.3371 171.33 57.6012 170.389 57.5283C169.736 57.4782 169.08 57.4281 168.423 57.2551C166.567 56.7634 165.635 55.3611 165.616 53.7038C165.603 52.2559 165.988 50.8854 166.236 49.4876C166.567 47.6209 167.114 45.8042 167.32 43.9102C167.421 42.9768 167.412 42.0753 167.118 41.2193C166.599 39.6986 165.345 39.4072 163.894 39.6166C161.372 39.9809 160.201 41.7702 159.471 43.9557C158.947 45.5174 158.722 47.1519 158.368 48.7546C158.001 50.4119 157.666 52.0738 157.321 53.7356C157.119 54.7054 156.931 55.6752 156.706 56.6359C156.614 57.032 156.485 57.4464 155.943 57.46C154.767 57.46 153.596 57.46 152.42 57.46V57.4464Z" fill="white"/>
<path d="M38.297 32.2544C37.7045 35.0636 37.112 37.8728 36.5195 40.6866C36.5011 40.7731 36.5195 40.8687 36.5195 40.9598C36.6297 41.1419 36.8088 41.0827 36.965 41.0827C39.5739 41.0827 42.1783 41.0827 44.7872 41.0782C45.072 41.0599 45.2512 41.1601 45.2144 41.4788C45.1088 42.353 44.9526 43.2226 44.677 44.065C44.5806 44.37 44.3693 44.5931 44.0064 44.5931C42.8305 44.5931 41.6547 44.5931 40.4742 44.5931C39.5923 44.5931 38.7104 44.5931 37.8285 44.5931C37.5162 44.5886 37.2038 44.5567 36.8961 44.5795C36.4781 44.6113 36.0418 44.4474 35.6422 44.6887C35.3987 45.918 35.1599 47.1519 34.9118 48.3812C34.4938 50.421 34.0667 52.4608 33.6441 54.5051C33.4971 55.2154 33.3685 55.9256 33.194 56.6314C33.1021 57.0047 32.9 57.3325 32.4361 57.3507C31.2419 57.3462 30.043 57.3371 28.8488 57.3325C28.7431 57.3325 28.6283 57.3098 28.564 57.4327C27.9715 57.2779 27.9485 56.8089 28.0404 56.3627C28.7569 52.9798 29.5102 49.6015 30.2222 46.2185C30.9433 42.781 31.6185 39.3298 32.3304 35.8877C32.7852 33.6931 33.2812 31.5122 33.7497 29.3177C33.8416 28.8897 34.0667 28.6575 34.5168 28.6529C35.4033 28.6529 36.2898 28.6529 37.1763 28.6529C37.7275 28.6529 38.2787 28.6529 38.8298 28.6529C39.8955 28.6529 40.9611 28.6529 42.0267 28.6529C43.0923 28.6529 44.158 28.6529 45.2236 28.6529C45.7748 28.6529 46.326 28.6529 46.8772 28.6529C47.7269 28.6529 48.5721 28.6529 49.4218 28.6529C49.7112 28.6347 49.8811 28.7394 49.849 29.0536C49.7709 29.9369 49.6193 30.8019 49.3116 31.6397C49.2013 31.9402 48.9992 32.1633 48.6364 32.1633C45.2787 32.1587 41.9165 32.1496 38.5588 32.1496C38.4624 32.1496 38.3292 32.0996 38.297 32.2589V32.2544Z" fill="white"/>
<path d="M83.3932 36.1882C85.3454 36.0607 87.1964 36.4295 88.951 37.2627C89.0934 37.331 89.2312 37.4221 89.3644 37.504C90.306 38.0732 90.3566 38.5876 89.5665 39.3343C89.2129 39.6667 88.9005 40.0446 88.579 40.4134C88.3907 40.6274 88.2161 40.6684 87.913 40.5728C86.829 40.2313 85.7771 39.7623 84.6472 39.603C83.2003 39.3981 81.7489 39.2752 80.4122 40.0856C79.6176 40.5682 79.1629 41.2967 78.9378 42.1663C78.7587 42.8493 79.2731 43.6734 80.0172 43.9102C81.7627 44.4656 83.5173 44.9847 85.2535 45.5538C86.2273 45.8725 87.1459 46.3142 87.7292 47.2248C88.0829 47.7757 88.2621 48.3721 88.2896 49.0232C88.3493 50.4847 88.2161 51.9099 87.4996 53.2257C86.5304 55.015 85.0192 56.1852 83.1682 56.991C81.0507 57.9108 78.8092 57.9882 76.5677 57.8334C75.0428 57.7286 73.5178 57.4646 72.1491 56.6769C71.2993 56.1852 70.9548 55.4658 71.3774 54.9194C71.6071 54.6189 71.901 54.3685 72.1169 54.0634C72.6038 53.3805 73.2239 53.335 73.9496 53.6127C75.3597 54.1499 76.8249 54.5552 78.3269 54.5643C79.8794 54.5734 81.5054 54.537 82.6537 53.2257C83.1866 52.6156 83.4943 51.8916 83.3244 51.0493C83.2325 50.5895 82.8972 50.3482 82.5068 50.1433C81.0094 49.3693 79.3742 48.9868 77.7803 48.4905C76.09 47.9669 74.6891 47.1201 74.2252 45.2943C73.8577 43.8464 74.0782 42.435 74.6753 41.0736C75.7547 38.6059 77.6793 37.1261 80.2561 36.4341C81.2758 36.1609 82.3322 36.1108 83.3795 36.1836L83.3932 36.1882Z" fill="white"/>
<path d="M103.939 36.5934C104.343 36.7391 104.55 36.9486 104.393 37.4357C104.223 37.9684 104.182 38.5421 104.035 39.0839C103.948 39.3981 103.81 39.735 103.383 39.7532C102.584 39.5529 101.771 39.7077 100.967 39.6713C100.783 39.6622 100.563 39.5893 100.416 39.7896C100.158 41.0326 99.8966 42.2756 99.6394 43.5186C99.2581 45.3489 98.8815 47.1792 98.5002 49.0141C98.289 50.034 98.0547 51.0493 97.8848 52.0738C97.7286 52.998 98.6197 54.2911 99.6715 54.0589C99.7588 54.0407 99.8552 54.0543 99.9471 54.0589C100.645 54.0817 100.843 54.2774 100.733 54.9331C100.636 55.525 100.462 56.0986 100.351 56.686C100.282 57.0457 100.076 57.2688 99.7542 57.4145C98.9458 57.2642 98.1328 57.2642 97.3244 57.4145C95.4871 57.542 93.8381 56.6222 93.2135 55.1698C92.7495 54.0953 92.823 52.9707 92.9884 51.8916C93.2824 49.9794 93.7371 48.0898 94.1321 46.1867C94.5133 44.3381 94.8946 42.4896 95.2896 40.6456C95.3447 40.3907 95.3172 40.1129 95.4687 39.8762C95.5376 39.7897 95.5422 39.6758 95.4182 39.6804C94.6557 39.6895 93.8933 39.562 93.1354 39.7487C92.4877 39.6804 92.6806 39.175 92.7128 38.8381C92.7633 38.3327 92.9103 37.8364 93.0389 37.3401C93.1537 36.903 93.4982 36.7027 93.907 36.5889C94.2929 36.5934 94.6787 36.6298 95.0599 36.598C95.4412 36.5661 95.8408 36.7437 96.2036 36.4932C96.4011 35.4142 96.5941 34.3351 96.8145 33.2606C96.8421 33.1149 96.9523 32.9692 97.1452 32.8781C98.7988 32.0768 100.434 31.2527 102.078 30.4331C102.166 30.3922 102.244 30.374 102.363 30.4423C101.973 32.309 101.578 34.1849 101.192 36.0607C101.164 36.2019 101.178 36.3476 101.169 36.4932C101.155 36.516 101.137 36.5388 101.128 36.5661C101.128 36.5706 101.155 36.598 101.169 36.598C102.092 36.598 103.015 36.5934 103.939 36.5889V36.5934Z" fill="white"/>
<path d="M58.8746 57.5192C58.3969 57.4372 58.181 57.246 58.3051 56.6951C59.0675 53.2803 59.7933 49.861 60.5328 46.4416C60.8956 44.7661 61.2631 43.0952 61.6259 41.4242C61.7775 40.7321 61.3733 40.1493 60.6568 39.9809C60.1929 39.8716 60.0091 39.5574 60.0918 39.093C60.1975 38.5193 60.2893 37.9411 60.4317 37.3765C60.5282 36.9941 60.813 36.648 61.2034 36.6298C62.54 36.5706 63.872 36.5934 65.1352 37.1489C65.7231 37.4084 66.0952 37.8273 66.1503 38.4784C66.164 38.6195 66.21 38.7288 66.3386 38.7743C66.4672 38.8153 66.5315 38.6878 66.605 38.6195C67.3445 37.9047 68.1621 37.2991 69.1175 36.903C69.7927 36.6207 70.4909 36.3931 71.2396 36.3976C71.8091 36.3976 72.3695 36.1518 72.9528 36.384C73.1365 36.4568 73.2376 36.4523 73.1825 36.6845C72.9253 37.7818 72.6864 38.8881 72.4338 39.99C72.3373 40.4225 71.8872 40.7003 71.4692 40.6229C70.376 40.4134 69.3058 40.5318 68.3137 41.0099C67.0689 41.6109 66.3524 42.6808 66.0584 43.9784C65.2546 47.5116 64.5059 51.0539 63.725 54.5916C63.5643 55.3292 63.3622 56.0622 63.183 56.7998C63.0498 57.3462 62.7375 57.6285 62.1358 57.5602C61.7913 57.5192 61.4376 57.542 61.0931 57.5374C60.3536 57.3872 59.6187 57.3826 58.8792 57.5374L58.8746 57.5192Z" fill="white"/>
<path d="M55.811 36.8211C56.2474 36.8484 56.3989 37.026 56.2979 37.4904C55.7834 39.7805 55.3058 42.0798 54.8051 44.37C54.3963 46.2504 53.9645 48.1217 53.5511 50.0021C53.3399 50.9674 53.1194 51.9326 52.9402 52.907C52.7657 53.8631 53.1699 54.4413 54.1207 54.7145C54.3779 54.7874 54.5203 54.9741 54.4652 55.2472C54.3274 55.9393 54.1896 56.6314 54.0242 57.3143C53.937 57.6649 53.6935 57.9472 53.3215 57.9654C51.994 58.0337 50.7034 57.9381 49.5367 57.1868C48.471 56.4993 48.076 55.4794 47.9796 54.3048C47.8831 53.1483 48.2138 52.0464 48.4527 50.9309C48.9809 48.4632 49.5229 46 50.0741 43.5368C50.4967 41.6427 50.9606 39.7578 51.3556 37.8592C51.4612 37.3492 51.5623 36.9258 52.1502 36.8165C53.372 36.8165 54.5892 36.8165 55.811 36.8165V36.8211Z" fill="white"/>
<path d="M171.312 65.2138C172.019 65.6282 172.672 66.0243 172.773 66.7937C172.938 68.0003 172.589 69.1021 171.721 69.9809C170.545 71.1738 167.927 71.3969 166.673 70.6957C165.966 70.2996 165.543 69.7532 165.502 68.8563C165.41 67.0168 166.59 65.8513 168.046 65.3277C168.078 65.1911 167.977 65.1091 167.89 65.0636C166.42 64.3078 166.889 62.5776 167.66 61.708C168.657 60.5879 169.975 60.3876 171.399 60.5561C171.808 60.6062 172.212 60.6608 172.58 60.8611C173.108 61.148 173.531 62.0085 173.452 62.5776C173.278 63.8525 172.626 64.7403 171.307 65.2184L171.312 65.2138ZM169.557 66.0379C168.51 65.9514 167.624 66.8347 167.417 67.7818C167.114 69.1795 168.17 70.0219 169.328 69.6576C170.265 69.3571 170.692 68.7516 170.949 67.8683C171.243 66.8393 170.508 65.8649 169.562 66.0379H169.557ZM170.448 61.8947C169.443 61.8947 168.887 62.441 168.818 63.3334C168.772 63.9481 169.263 64.5491 169.861 64.6083C170.586 64.6766 171.56 63.6248 171.588 62.7962C171.606 62.2453 171.17 61.8992 170.448 61.8992V61.8947Z" fill="white"/>
<path d="M179.653 66.516C178.445 67.9092 176.3 67.8819 175.294 66.7163C174.798 66.1427 174.706 65.4506 174.794 64.754C174.913 63.7887 175.17 62.8645 175.758 62.0404C176.369 61.1844 177.228 60.8019 178.22 60.5834C178.987 60.4149 179.727 60.4605 180.42 60.7928C181.201 61.1707 181.504 61.9038 181.605 62.7051C181.844 64.6037 181.422 66.4113 180.645 68.1278C180.012 69.5301 179.042 70.6638 177.421 71.0008C176.342 71.2239 175.308 71.0235 174.353 70.4726C174.183 70.377 174.137 70.2358 174.229 70.0355C174.541 69.3434 174.605 69.3343 175.377 69.4983C175.97 69.6212 176.553 69.8488 177.182 69.7168C178.344 69.4755 178.882 68.6195 179.29 67.6406C179.442 67.2809 179.534 66.8939 179.653 66.516ZM179.966 63.1968C179.979 62.696 179.933 62.2088 179.41 61.9675C178.748 61.6625 177.738 61.9994 177.302 62.5822C176.897 63.124 176.741 63.7432 176.599 64.3852C176.438 65.1046 176.622 65.7056 177.159 66.0288C177.614 66.302 178.556 66.1882 178.969 65.7556C179.649 65.0408 179.92 64.1575 179.966 63.1968Z" fill="white"/>
<path d="M126.165 60.4696C126.84 60.424 127.658 60.7018 128.48 60.9567C128.788 61.0524 128.898 61.2117 128.705 61.5486C128.443 62.0131 128.237 62.2453 127.58 62.0768C126.749 61.8674 125.876 61.6351 124.976 61.8856C124.447 62.0358 124.002 62.2817 123.694 62.7051C123.221 63.3562 123.396 64.03 124.13 64.3988C124.764 64.7221 125.417 65.009 126.073 65.2685C128.292 66.1472 127.952 69.0384 126.354 70.0993C124.53 71.3104 122.642 71.3149 120.69 70.4999C120.516 70.4271 120.107 70.4225 120.341 70.0219C120.534 69.694 120.598 69.1522 121.168 69.3389C122.063 69.6257 122.978 69.6485 123.901 69.644C124.622 69.644 125.191 69.348 125.642 68.8199C126.193 68.1733 125.835 67.2946 124.925 66.9076C124.227 66.6071 123.506 66.3612 122.844 65.9605C121.2 64.968 121.508 63.0056 122.454 61.9448C123.391 60.8976 124.585 60.4832 126.165 60.4741V60.4696Z" fill="white"/>
<path d="M182.262 68.3372C181.922 68.0185 182.212 67.7362 182.382 67.5359C183.466 66.2793 184.577 65.0499 185.679 63.8115C186.492 62.8963 187.315 61.9857 188.118 61.0615C188.615 60.4923 189.267 60.7336 189.859 60.7109C190.071 60.7018 189.993 60.9385 189.965 61.0569C189.57 62.9783 189.189 64.8997 188.748 66.812C188.647 67.2399 188.807 67.2172 189.097 67.2399C189.317 67.2582 189.63 67.0988 189.74 67.3492C189.873 67.6497 189.712 67.9912 189.602 68.2826C189.496 68.5603 189.18 68.4328 188.959 68.4283C188.564 68.4192 188.339 68.4511 188.298 68.961C188.261 69.4573 188.073 69.9536 187.99 70.4635C187.944 70.764 187.797 71.0144 187.411 70.9461C187.356 70.937 187.301 70.9461 187.246 70.9461C185.923 70.9552 186.052 71.0463 186.244 69.7851C186.313 69.3343 186.451 68.8973 186.561 68.4556C186.451 68.278 186.267 68.3327 186.111 68.3327C184.825 68.3327 183.539 68.3327 182.258 68.3372H182.262ZM184.485 67.117C185.252 67.3674 186.033 67.2263 186.814 67.1899C186.846 67.1899 186.869 67.0715 186.897 67.0123C187.113 65.8968 187.328 64.7859 187.544 63.6704C187.508 63.6476 187.471 63.6248 187.434 63.6066C186.451 64.7767 185.468 65.9469 184.485 67.1216V67.117Z" fill="white"/>
<path d="M138.516 69.4209C138.558 68.3828 138.861 67.4995 139.035 66.598C139.127 66.129 139.109 65.6555 139.072 65.1956C139.031 64.6902 138.42 64.3852 137.841 64.5354C137.152 64.7176 136.697 65.1683 136.44 65.8148C135.967 66.9895 135.894 68.2553 135.563 69.4664C135.535 69.5666 135.522 69.6758 135.494 69.776C135.191 70.9325 135.195 70.9234 133.974 70.8505C133.652 70.8323 133.533 70.6912 133.592 70.4089C133.928 68.8199 134.268 67.2308 134.612 65.6418C134.699 65.2321 134.846 64.8587 134.295 64.5946C133.909 64.408 134.281 64.0574 134.295 63.7796C134.304 63.5747 134.488 63.5156 134.695 63.5338C135.035 63.5656 135.37 63.5156 135.715 63.6339C136.022 63.7432 136.22 63.8844 136.224 64.2167C136.224 64.3442 136.279 64.4444 136.376 64.4763C136.422 64.4945 136.528 64.3897 136.583 64.326C137.547 63.165 138.617 63.1012 139.959 63.5884C140.698 63.857 141.157 65.0681 140.937 65.997C140.717 66.9258 140.501 67.8546 140.317 68.788C140.271 69.0338 140.184 69.3617 140.473 69.5347C141.047 69.8716 140.68 70.3041 140.629 70.7048C140.615 70.8323 140.528 70.8232 140.436 70.8369C139.357 71.0053 138.369 70.336 138.516 69.4209Z" fill="white"/>
<path d="M151.106 67.8C151.106 68.401 151.015 68.9883 151.534 69.4983C152.02 69.9718 152.572 69.8762 153.114 69.8261C153.513 69.7897 153.913 69.6531 154.294 69.5165C154.524 69.4345 154.707 69.3435 154.79 69.6531C154.864 69.9217 155.13 70.2176 154.73 70.4498C154.391 70.6502 154.028 70.8004 153.646 70.8733C152.512 71.0918 151.368 71.3013 150.312 70.6092C149.678 70.1903 149.352 69.5848 149.324 68.8107C149.278 67.372 149.577 66.0379 150.427 64.8405C151.589 63.2014 153.729 62.91 155.314 63.7705C155.801 64.0346 155.98 64.5673 156.035 65.0818C156.095 65.6464 156.067 66.211 155.847 66.7664C155.562 67.4904 155.213 67.7681 154.4 67.7635C154.322 67.6634 154.207 67.6725 154.101 67.6725C153.21 67.6725 152.319 67.6725 151.428 67.6725C151.308 67.6725 151.166 67.6406 151.097 67.7954L151.106 67.8ZM152.686 66.5843C153.017 66.5843 153.348 66.5798 153.679 66.5843C153.963 66.5934 154.198 66.475 154.257 66.2155C154.335 65.8695 154.349 65.5052 154.234 65.1547C154.078 64.6811 153.766 64.4808 153.256 64.5081C152.484 64.5445 151.433 65.5963 151.428 66.3612C151.428 66.5752 151.534 66.5934 151.699 66.5889C152.03 66.5843 152.36 66.5889 152.691 66.5889L152.686 66.5843Z" fill="white"/>
<path d="M52.931 33.5747C52.389 33.4564 52.2328 33.206 52.3936 32.5731C52.6416 31.6033 52.8437 30.6244 53.055 29.6455C53.1469 29.222 53.473 28.9534 53.9139 28.8578C55.1311 28.8578 56.3483 28.8578 57.5701 28.8578C57.9743 28.9215 58.0616 29.2084 57.9973 29.5316C57.7585 30.6654 57.4829 31.79 57.2394 32.9191C57.1567 33.297 56.9455 33.5065 56.5734 33.5702C55.3608 33.5702 54.1482 33.5702 52.9356 33.5702L52.931 33.5747Z" fill="white"/>
<path d="M161.731 70.9461C160.839 70.9461 160.826 70.9461 161.009 70.0401C161.464 67.8091 161.891 65.569 162.424 63.3517C162.456 63.2196 162.47 63.0284 162.397 62.9328C162.263 62.7598 162.103 62.951 161.965 63.0011C161.565 63.1468 161.175 63.3243 160.78 63.4837C160.444 63.6203 160.334 63.511 160.339 63.1559C160.348 62.3591 160.904 62.1041 161.524 61.8583C162.465 61.4895 163.398 61.0842 164.33 60.6927C164.445 60.6426 164.565 60.5288 164.679 60.6062C164.822 60.7018 164.767 60.8793 164.739 61.0068C164.422 62.4729 164.078 63.9344 163.765 65.4051C163.425 66.9759 163.122 68.5558 162.778 70.1266C162.599 70.9461 162.571 70.9416 161.726 70.9416L161.731 70.9461Z" fill="white"/>
<path d="M145.186 71.0508C144.308 71.1009 143.569 70.9143 142.949 70.2677C142.402 69.694 142.246 69.0065 142.306 68.3054C142.384 67.4175 142.554 66.5297 142.93 65.6919C143.583 64.2486 144.731 63.4473 146.27 63.3243C147.028 63.2651 147.79 63.2925 148.47 63.7113C148.649 63.8206 148.984 63.8206 148.883 64.153C148.782 64.4763 148.631 64.7995 148.217 64.8359C148.075 64.8496 147.928 64.8633 147.79 64.7859C146.449 64.0801 145.117 64.6993 144.556 66.1108C144.212 66.9804 144.014 67.8819 144.189 68.7789C144.35 69.603 145.02 70.0173 145.967 69.8261C146.311 69.7578 146.66 69.6622 146.982 69.5165C147.299 69.3708 147.45 69.4937 147.565 69.7487C147.689 70.0264 147.753 70.3041 147.409 70.4817C146.701 70.846 145.976 71.1328 145.186 71.0463V71.0508Z" fill="white"/>
<path d="M131.204 63.5338C132.04 63.5338 132.072 63.5383 131.916 64.3214C131.622 65.8103 131.296 67.2946 130.974 68.7789C130.896 69.134 130.864 69.4436 131.273 69.644C131.764 69.8853 131.323 70.2495 131.342 70.55C131.356 70.7367 131.167 70.8277 130.919 70.846C129.527 70.9598 128.949 69.9627 129.229 68.7333C129.569 67.2536 129.863 65.7648 130.152 64.2714C130.295 63.5292 130.276 63.5247 131.199 63.5247L131.204 63.5338Z" fill="white"/>
<path d="M196.722 75.7314C196.961 75.7314 197.199 75.7405 197.438 75.7405C211.686 75.7405 225.935 75.7405 240.183 75.7405C240.422 75.7405 240.66 75.745 240.899 75.7496C240.734 75.9271 240.518 75.8452 240.33 75.8452C225.98 75.8452 211.627 75.8452 197.277 75.8452C197.094 75.8452 196.869 75.9545 196.726 75.7314H196.722Z" fill="#EDD075"/>
<path d="M131.842 60.374C132.848 60.3876 132.807 60.1918 132.554 61.2755C132.499 61.5031 132.642 61.9174 132.293 61.9721C131.829 62.0404 131.346 61.9903 130.878 61.9766C130.827 61.9766 130.768 61.8856 130.731 61.8264C130.667 61.708 130.915 60.5242 131.034 60.4514C131.3 60.2784 131.604 60.424 131.847 60.374H131.842Z" fill="white"/>
<path d="M38.297 32.2544C38.3337 32.095 38.4624 32.1451 38.5588 32.1451C41.9165 32.1451 45.2787 32.1542 48.6363 32.1588C48.4434 32.3181 48.2137 32.2453 48.0025 32.2498C44.7688 32.2544 41.5306 32.2544 38.297 32.2589V32.2544Z" fill="white"/>
<path d="M44.7918 41.0691C42.1829 41.0691 39.5785 41.0736 36.9696 41.0736C36.8134 41.0736 36.6297 41.1374 36.524 40.9507C39.0917 40.9552 41.6593 40.9598 44.2269 40.9689C44.4152 40.9689 44.6311 40.8778 44.7918 41.0645V41.0691Z" fill="white"/>
<path d="M107.025 57.3325C108.569 57.3325 110.112 57.3325 111.651 57.3325C111.651 57.3598 111.651 57.3872 111.651 57.4145C110.107 57.4145 108.564 57.4145 107.025 57.4145C107.025 57.3872 107.025 57.3598 107.025 57.3371V57.3325Z" fill="white"/>
<path d="M187.117 57.4464C188.587 57.4464 190.061 57.4464 191.531 57.4464C191.398 57.5829 191.224 57.5374 191.067 57.5374C189.905 57.5374 188.743 57.5374 187.581 57.5374C187.42 57.5374 187.25 57.5784 187.117 57.4464Z" fill="white"/>
<path d="M182.262 68.3372C183.548 68.3372 184.834 68.3327 186.116 68.3327C186.272 68.3327 186.456 68.2735 186.566 68.4556C185.298 68.4511 184.035 68.4511 182.767 68.4374C182.598 68.4374 182.4 68.5285 182.262 68.3418V68.3372Z" fill="white"/>
<path d="M28.5686 57.419C28.6329 57.2961 28.7477 57.3189 28.8533 57.3189C30.0476 57.3189 31.2464 57.328 32.4406 57.3371C32.1329 57.5237 31.7976 57.419 31.4761 57.4236C30.5069 57.4372 29.5377 57.4236 28.564 57.4236L28.5686 57.419Z" fill="white"/>
<path d="M204.218 40.6411C204.548 40.591 204.709 40.7503 204.682 41.06C204.65 41.3969 204.438 41.5153 204.108 41.406C204.011 41.1328 204.227 40.9006 204.218 40.6411Z" fill="#E0AD0F"/>
<path d="M203.446 44.238C203.777 44.1879 203.938 44.3472 203.91 44.6569C203.878 44.9938 203.667 45.1122 203.336 45.0029C203.239 44.7297 203.455 44.4975 203.446 44.238Z" fill="#E0AD0F"/>
<path d="M110.553 28.6666C110.273 28.9989 110.048 29.3951 109.579 29.5225C109.552 28.9989 109.869 28.7576 110.323 28.6347C110.401 28.6438 110.475 28.6575 110.553 28.6666Z" fill="white"/>
<path d="M55.8109 36.8211C54.5891 36.8211 53.3719 36.8211 52.1501 36.8211C52.2879 36.6389 52.49 36.7255 52.66 36.7255C53.5603 36.7163 54.4605 36.7163 55.3608 36.7255C55.5124 36.7255 55.6961 36.648 55.8155 36.8211H55.8109Z" fill="white"/>
<path d="M57.5656 28.8578C56.3484 28.8578 55.1312 28.8578 53.9094 28.8578C54.5846 28.6529 55.2736 28.7804 55.9534 28.7758C56.4862 28.7713 57.0374 28.6529 57.561 28.8623L57.5656 28.8578Z" fill="white"/>
<path d="M175 57.4464H178.638C178.257 57.6421 177.844 57.542 177.453 57.5283C176.636 57.5055 175.813 57.6558 175 57.4464Z" fill="white"/>
<path d="M52.931 33.5747C54.1436 33.5747 55.3562 33.5747 56.5689 33.5747C56.1876 33.7705 55.7742 33.6658 55.3838 33.6567C54.5662 33.6385 53.744 33.7796 52.931 33.5747Z" fill="white"/>
<path d="M40.4788 44.584C41.6546 44.584 42.8305 44.584 44.0109 44.584C43.6343 44.7843 43.2255 44.6614 42.8351 44.6705C42.0496 44.6887 41.2688 44.6705 40.4834 44.6705C40.4834 44.6432 40.4834 44.6159 40.4834 44.5886L40.4788 44.584Z" fill="white"/>
<path d="M152.42 57.4464C153.596 57.4464 154.767 57.4464 155.943 57.4464C155.525 57.6421 155.08 57.5374 154.648 57.5283C153.904 57.5101 153.155 57.6512 152.42 57.4464Z" fill="white"/>
<path d="M151.106 67.8C151.171 67.6452 151.313 67.677 151.437 67.677C152.328 67.677 153.219 67.677 154.11 67.677C154.221 67.677 154.331 67.6679 154.409 67.7681C153.307 67.7772 152.209 67.7909 151.106 67.8Z" fill="white"/>
<path d="M244.725 57.5374C244.408 57.5693 244.367 57.3416 244.372 57.1276C244.381 56.7497 244.693 56.7179 244.978 56.6678C245.006 56.991 244.702 57.2141 244.725 57.5374Z" fill="#E0AD0F"/>
<path d="M42.0267 28.6484C40.9611 28.6484 39.8955 28.6484 38.8298 28.6484C38.8298 28.621 38.8298 28.5892 38.8298 28.5618C39.8955 28.5618 40.9611 28.5618 42.0267 28.5618C42.0267 28.5892 42.0267 28.621 42.0267 28.6484Z" fill="white"/>
<path d="M149.457 36.7072C148.383 36.7072 147.312 36.7072 146.238 36.7072C146.949 36.4841 147.68 36.6389 148.396 36.6162C148.745 36.6025 149.117 36.5024 149.457 36.7072Z" fill="white"/>
<path d="M241.749 71.3832C241.432 71.4151 241.391 71.1874 241.395 70.9734C241.404 70.5955 241.717 70.5637 242.002 70.5136C241.919 70.805 241.836 71.0918 241.749 71.3832Z" fill="#E0AD0F"/>
<path d="M42.0267 28.6484C42.0267 28.621 42.0267 28.5892 42.0267 28.5618C43.0924 28.5618 44.158 28.5618 45.2236 28.5618C45.2236 28.5892 45.2236 28.621 45.2236 28.6484H42.0267Z" fill="white"/>
<path d="M100.42 39.7851C100.567 39.5848 100.788 39.6576 100.971 39.6667C101.775 39.7077 102.588 39.5529 103.388 39.7487C102.4 39.7578 101.408 39.7714 100.42 39.7805V39.7851Z" fill="white"/>
<path d="M245.828 52.4152C245.548 52.4517 245.488 52.2604 245.469 52.0601C245.437 51.7095 245.713 51.6367 245.97 51.5502C245.924 51.8416 245.874 52.1284 245.828 52.4198V52.4152Z" fill="#E0AD0F"/>
<path d="M243.954 61.1389C243.673 61.1753 243.614 60.9841 243.595 60.7837C243.563 60.4331 243.839 60.3603 244.096 60.2738C244.05 60.5652 244 60.852 243.954 61.1434V61.1389Z" fill="#E0AD0F"/>
<path d="M242.851 66.261C242.571 66.2975 242.511 66.1062 242.493 65.9059C242.461 65.5553 242.736 65.4825 242.994 65.396C242.948 65.6874 242.897 65.9742 242.851 66.2656V66.261Z" fill="#E0AD0F"/>
<path d="M103.939 36.5934C103.016 36.5934 102.092 36.598 101.169 36.6025C101.155 36.6025 101.128 36.5752 101.128 36.5706C101.137 36.5433 101.151 36.5251 101.169 36.4978C101.918 36.4978 102.666 36.4978 103.415 36.5024C103.59 36.5024 103.783 36.4477 103.939 36.5934Z" fill="white"/>
<path d="M107.025 57.3325C107.025 57.3598 107.025 57.3872 107.025 57.4099H104.375C105.252 57.2096 106.139 57.3598 107.021 57.3325H107.025Z" fill="white"/>
<path d="M37.1763 28.6484C36.2898 28.6484 35.4033 28.6484 34.5168 28.6484C34.9348 28.4253 35.3896 28.5755 35.8213 28.5527C36.2715 28.5254 36.7216 28.5573 37.1717 28.5618C37.1717 28.5937 37.1717 28.621 37.1717 28.6529L37.1763 28.6484Z" fill="white"/>
<path d="M40.4788 44.584C40.4788 44.6113 40.4788 44.6386 40.4788 44.666C39.5969 44.666 38.715 44.666 37.8331 44.666C37.8331 44.6386 37.8331 44.6113 37.8331 44.584C38.715 44.584 39.5969 44.584 40.4788 44.584Z" fill="white"/>
<path d="M49.4172 28.6438C48.5675 28.6438 47.7223 28.6438 46.8726 28.6438C46.8726 28.6165 46.8726 28.5892 46.8726 28.5573C47.7223 28.5755 48.5766 28.4253 49.4172 28.6393V28.6438Z" fill="white"/>
<path d="M93.1447 39.7487C93.8979 39.5574 94.665 39.6849 95.4275 39.6804C95.5469 39.6804 95.5423 39.7897 95.478 39.8762C95.06 39.644 94.6099 39.8124 94.1735 39.7714C93.8336 39.7396 93.4891 39.7532 93.1492 39.7487H93.1447Z" fill="white"/>
<path d="M97.3291 57.4145C98.1375 57.2642 98.9505 57.2642 99.7589 57.4145C98.9505 57.4145 98.1375 57.4145 97.3291 57.4145Z" fill="white"/>
<path d="M111.655 57.4145C111.655 57.3872 111.655 57.3598 111.655 57.3325C112.427 57.3598 113.208 57.2187 113.97 57.4145C113.199 57.4145 112.427 57.4145 111.655 57.4145Z" fill="white"/>
<path d="M96.2129 36.4978C95.8546 36.7482 95.4504 36.5707 95.0692 36.6025C94.6879 36.6344 94.3021 36.6025 93.9163 36.5934C94.6741 36.3931 95.4458 36.557 96.2129 36.4978Z" fill="white"/>
<path d="M58.8746 57.5192C59.6141 57.3644 60.3491 57.369 61.0886 57.5192C60.3491 57.5192 59.6141 57.5192 58.8746 57.5192Z" fill="white"/>
<path d="M37.8377 44.584C37.8377 44.6113 37.8377 44.6386 37.8377 44.666C37.1074 44.666 36.3817 44.6751 35.6514 44.6796C36.051 44.4383 36.4873 44.6022 36.9053 44.5703C37.2131 44.5476 37.5254 44.5749 37.8377 44.584Z" fill="white"/>
<path d="M110.553 28.6666C110.475 28.6575 110.401 28.6438 110.323 28.6347C110.953 28.4799 111.582 28.4844 112.211 28.6347C111.66 28.6438 111.104 28.6575 110.553 28.6666Z" fill="white"/>
<path d="M116.836 28.6347C116.207 28.6347 115.583 28.6347 114.953 28.6347C115.583 28.4799 116.207 28.489 116.836 28.6347Z" fill="white"/>
<path d="M46.8726 28.5618C46.8726 28.5892 46.8726 28.6165 46.8726 28.6484C46.3214 28.6484 45.7702 28.6484 45.219 28.6484C45.219 28.621 45.219 28.5892 45.219 28.5618C45.7702 28.5618 46.3214 28.5618 46.8726 28.5618Z" fill="white"/>
<path d="M37.1763 28.6484C37.1763 28.6165 37.1763 28.5892 37.1763 28.5573C37.7275 28.5573 38.2786 28.5573 38.8298 28.5573C38.8298 28.5846 38.8298 28.6165 38.8298 28.6438C38.2786 28.6438 37.7275 28.6438 37.1763 28.6438V28.6484Z" fill="white"/>
<path d="M240.426 44.9027C239.236 44.4429 238.235 43.7462 237.234 43.0633C236.095 42.2802 234.969 41.4652 233.885 40.6138C233.454 40.2768 232.976 40.2541 232.512 40.2222C230.647 40.1038 229.003 40.6229 227.735 42.048C227.473 42.3439 227.248 42.6672 227.023 42.9904C226.927 43.127 226.913 43.2818 227.092 43.3957C227.152 43.4366 227.193 43.5004 227.248 43.5459C227.827 44.0528 227.936 44.6644 227.574 45.3808C227.492 45.5401 227.427 45.7086 227.335 45.8634C226.867 46.6374 226.325 47.1109 225.264 47.1018C221.745 47.0791 218.301 46.6147 214.975 45.5037C213.009 44.8481 211.19 43.8692 209.569 42.5351C207.3 40.6684 205.839 38.3281 205.146 35.5143C204.751 33.9026 204.659 32.268 204.842 30.6016C205.068 28.5573 205.458 26.5585 206.073 24.5961C206.39 23.5854 207.107 23.2302 208.195 23.4215C209.633 23.6673 211.08 23.854 212.522 24.068C214.144 24.3139 215.761 24.5643 217.382 24.8101C218.324 24.9513 219.228 25.0697 220.092 24.4049C221.024 23.6901 222.122 23.6582 223.298 23.8085C224.368 23.9451 225.457 23.9997 226.532 24.1682C227.611 24.3366 228.507 24.7282 229.329 25.5068C230.574 26.6769 231.864 27.7969 233.045 29.0354C233.94 29.9733 234.804 30.9476 235.58 31.9857C235.92 32.441 235.87 32.9419 235.759 33.429C235.649 33.9162 235.759 34.2668 236.081 34.6584C237.261 36.0971 238.502 37.4949 239.36 39.1659C239.815 40.0583 239.967 41.0235 240.109 41.9933C240.247 42.9449 240.32 43.9056 240.426 44.9073V44.9027ZM228.516 33.9891C227.744 33.2333 227.078 32.6141 226.449 31.9539C226.15 31.6397 225.907 31.6716 225.622 31.922C225.379 32.136 225.144 32.3591 224.896 32.5731C224.102 33.2651 223.307 33.9572 222.508 34.6493C222.526 34.6993 222.545 34.7449 222.563 34.795C224.501 34.5309 226.44 34.2668 228.511 33.9891H228.516Z" fill="#1E3F66"/>
<path d="M226.481 74.0376C224.129 72.098 221.883 70.2495 219.596 68.3645C220.997 67.4995 222.356 66.6617 223.707 65.8194C224.23 65.4916 224.221 65.4916 223.739 65.1547C220.046 62.564 216.358 59.9687 212.669 57.3689C212.389 57.1732 212.146 57.1322 211.797 57.2551C209.224 58.1657 206.643 59.0399 204.062 59.9369C203.35 60.1827 202.67 59.9642 201.99 59.8139C201.774 59.7684 201.774 59.609 201.82 59.3905C202.624 55.616 203.4 51.837 204.204 48.0625C204.691 45.7678 205.219 43.4822 205.724 41.192C205.77 40.978 205.614 40.6365 205.908 40.5728C206.207 40.509 206.253 40.8733 206.395 41.0691C207.41 42.4486 208.558 43.7007 209.9 44.7889C210.896 45.5993 211.98 46.2777 213.119 46.8423C215.173 47.8622 217.345 48.5178 219.633 48.8274C220.841 48.9913 222.039 49.1507 223.261 49.1507C223.638 49.1507 224.01 49.2918 224.396 49.2509C224.607 49.2281 224.671 49.3237 224.685 49.5332C224.745 50.339 224.827 51.1404 224.901 51.9417C224.988 52.9206 224.566 53.7994 224.322 54.7054C224.166 55.2928 224.157 55.7253 224.515 56.2808C225.815 58.2705 227.023 60.3148 228.272 62.3318C228.35 62.4593 228.429 62.564 228.424 62.7188C228.401 63.6203 228.47 64.5309 228.562 65.4187C228.718 66.8848 228.148 68.1232 227.606 69.3935C227.257 70.2131 226.83 71.0144 226.6 71.8658C226.431 72.5124 226.357 73.2135 226.458 74.0285L226.481 74.0376Z" fill="#1E3F66"/>
<path d="M212.132 58.6757C213.239 59.2721 214.098 60.0143 215.049 60.6198C216.165 61.3392 217.235 62.1269 218.328 62.8827C218.576 63.0557 218.645 63.2242 218.576 63.5565C218.057 65.9742 217.579 68.401 217.088 70.8277C217.047 71.0372 217.051 71.2648 216.964 71.4561C216.647 72.1709 216.863 72.7992 217.23 73.4184C217.364 73.6506 217.474 73.8965 217.589 74.1287C217.497 74.2562 217.382 74.2107 217.285 74.2107C214.915 74.2107 212.55 74.2061 210.18 74.2243C209.812 74.2243 209.596 74.1287 209.482 73.7827C209.436 73.6461 209.367 73.514 209.28 73.4002C208.728 72.6945 208.917 72.0252 209.247 71.2785C210.221 69.0794 211.126 66.8484 212.068 64.6356C212.146 64.4535 212.123 64.2805 212.127 64.1029C212.132 62.5048 212.127 60.9067 212.127 59.3085V58.6711L212.132 58.6757Z" fill="#1E3F66"/>
<path d="M232.448 41.8522C233.449 41.5881 234.207 42.2802 235.02 42.8447C238.13 45.0074 241.478 46.6329 245.231 47.416C246.985 47.7848 248.744 47.7347 250.508 47.7074C251.119 47.6983 251.735 47.5389 252.346 47.6801C252.86 47.7984 252.924 48.0261 252.571 48.4222C252.199 48.8274 251.712 49.0779 251.193 49.2463C249.764 49.7107 248.29 49.902 246.792 50.0477C245.653 50.1569 244.537 50.1023 243.421 49.9976C242.043 49.8701 240.683 49.6015 239.351 49.2099C237.004 48.5224 234.804 47.5116 232.755 46.1958C231.607 45.4536 230.5 44.6523 229.49 43.7189C229.21 43.4594 229.21 43.2682 229.435 43.0178C230.206 42.1618 231.166 41.7566 232.448 41.8567V41.8522Z" fill="#1E3F66"/>
<path d="M240.421 51.1085C240.389 52.0146 239.985 52.8933 239.586 53.7675C238.593 55.9438 237.491 58.0701 236.687 60.3239C236.471 60.9249 236.131 61.5259 236.361 62.2134C236.609 62.951 236.944 63.2196 237.711 63.1968C238.12 63.1832 238.359 63.2242 238.414 63.7204C238.456 64.1029 238.456 64.4762 238.456 64.8542C238.456 65.2229 238.097 65.2821 237.849 65.3778C236.848 65.7693 235.897 65.5326 235.038 64.9816C233.881 64.2349 233.343 63.1058 233.288 61.7672C233.206 59.6773 233.467 57.6194 233.803 55.5568C234.06 53.9724 234.4 52.397 234.492 50.7898C234.533 50.1023 234.248 49.4512 234.248 48.7682C234.248 48.6772 234.097 48.5816 234.257 48.5042C234.34 48.4632 234.427 48.5042 234.51 48.5588C235.658 49.2463 236.885 49.7517 238.162 50.1342C238.745 50.3117 239.328 50.4756 239.939 50.5713C240.173 50.6077 240.532 50.6077 240.417 51.104L240.421 51.1085Z" fill="#1E3F66"/>
<path d="M109.689 53.7265C109.827 53.9405 110.034 53.9496 110.264 53.9451C111.104 53.936 111.945 53.9405 112.785 53.9451C112.96 53.9451 113.153 53.8904 113.309 54.0316C112.174 54.0361 111.035 54.0316 109.901 54.0589C109.542 54.068 109.634 53.9132 109.689 53.722V53.7265Z" fill="white"/>
<path d="M115.408 44.4429C114.154 44.4429 112.9 44.4429 111.646 44.4429C112.358 44.2425 113.084 44.37 113.8 44.3609C114.333 44.3564 114.884 44.2425 115.408 44.4429Z" fill="white"/>
<path d="M116.074 32.0176C115.449 32.0222 114.829 32.0313 114.204 32.0358C114.825 31.8264 115.449 31.8719 116.074 32.0176Z" fill="white"/>
<path d="M113.189 41.0599C113.814 40.9097 114.443 40.9142 115.068 41.0599C114.443 41.0599 113.814 41.0599 113.189 41.0599Z" fill="white"/>
<path d="M184.485 67.117C185.156 67.1216 185.827 67.1216 186.497 67.1352C186.653 67.1352 186.777 67.0988 186.897 67.0077C186.869 67.0715 186.842 67.1853 186.814 67.1853C186.038 67.2217 185.257 67.3629 184.485 67.1125V67.117Z" fill="white"/>
<path d="M228.516 33.9936C226.444 34.2759 224.506 34.54 222.568 34.7995C222.549 34.7494 222.531 34.7039 222.513 34.6538C223.307 33.9618 224.106 33.2697 224.901 32.5776C225.144 32.3636 225.383 32.1405 225.627 31.9265C225.912 31.6761 226.155 31.6397 226.454 31.9584C227.078 32.6186 227.749 33.2378 228.52 33.9936H228.516Z" fill="#E0AD0F"/>
</svg>
