<svg width="156" height="156" viewBox="0 0 156 156" fill="none" xmlns="http://www.w3.org/2000/svg">
<path d="M29.3404 70.7734C29.3404 70.7734 50.9413 69.9084 55.6093 34.401C59.7546 2.86712 96.1794 17.2202 106.708 29.7904C120.348 46.074 113.077 74.0852 130.721 77.6238C148.366 81.1624 136.844 120.506 110.061 116.74C76.7435 112.055 84.8043 131.524 74.8027 139.764C67.6247 145.679 38.1924 139.986 37.2115 118.517C36.386 100.451 28.7656 100.508 23.3642 98.46C15.5741 95.5056 10.6655 74.1094 29.3404 70.7734Z" fill="#DEE9FF"/>
<path d="M77.9996 105.9C93.4084 105.9 105.9 93.4084 105.9 77.9996C105.9 62.5909 93.4084 50.0996 77.9996 50.0996C62.5909 50.0996 50.0996 62.5909 50.0996 77.9996C50.0996 93.4084 62.5909 105.9 77.9996 105.9Z" fill="#003B65"/>
<path d="M77.9996 58.5L83.8496 70.35L96.8996 72.3L87.4496 81.45L89.6996 94.5L77.9996 88.35L66.2996 94.5L68.5496 81.45L59.0996 72.3L72.1496 70.35L77.9996 58.5Z" fill="#FFCA28"/>
<g clip-path="url(#clip0_1705_12160)">
<path d="M103.37 47.8503L105.91 43.7903C106.008 43.6298 106.147 43.4975 106.311 43.4064C106.476 43.3153 106.662 43.2684 106.85 43.2703C106.998 43.2649 107.146 43.2893 107.285 43.3421C107.423 43.3948 107.55 43.4749 107.657 43.5774C107.765 43.6799 107.85 43.8029 107.909 43.9391C107.968 44.0753 107.999 44.2219 108 44.3703V47.2803H112.39C112.552 47.2855 112.711 47.3251 112.857 47.3963C113.003 47.4675 113.132 47.5688 113.236 47.6934C113.34 47.8181 113.416 47.9634 113.46 48.1197C113.504 48.276 113.514 48.4397 113.49 48.6003L112.69 53.7603C112.656 54.036 112.522 54.2898 112.314 54.474C112.106 54.6581 111.838 54.7599 111.56 54.7603H105C104.688 54.7615 104.379 54.6896 104.1 54.5503L103.38 54.1903M103.37 47.8503V54.1603H101C100.867 54.1603 100.74 54.1076 100.646 54.0138C100.553 53.92 100.5 53.7929 100.5 53.6603V48.3503C100.5 48.2176 100.553 48.0905 100.646 47.9967C100.74 47.9029 100.867 47.8503 101 47.8503H103.37Z" stroke="#003B65" stroke-linecap="round" stroke-linejoin="round"/>
</g>
<defs>
<clipPath id="clip0_1705_12160">
<rect width="14" height="14" fill="white" transform="translate(100 42)"/>
</clipPath>
</defs>
</svg>
