<svg width="16" height="16" viewBox="0 0 16 16" fill="none" xmlns="http://www.w3.org/2000/svg">
<path d="M8.00063 14.6668C9.76874 14.6668 11.4644 13.9644 12.7147 12.7142C13.9649 11.4639 14.6673 9.76825 14.6673 8.00015C14.6673 6.23204 13.9649 4.53635 12.7147 3.28611C11.4644 2.03587 9.76874 1.3335 8.00063 1.3335C6.23253 1.3335 4.53684 2.03587 3.2866 3.28611C2.03636 4.53635 1.33398 6.23204 1.33398 8.00015C1.33398 9.76825 2.03636 11.4639 3.2866 12.7142C4.53684 13.9644 6.23253 14.6668 8.00063 14.6668Z" stroke="#003B65" stroke-linecap="round" stroke-linejoin="round"/>
<path d="M4.61523 9.02566C5.12805 10.8718 7.17933 12 9.02548 11.4872C10.1537 11.0769 11.0768 10.1539 11.3844 9.02566M5.74344 6.41028C5.67543 6.41028 5.61021 6.38327 5.56213 6.33518C5.51404 6.28709 5.48703 6.22187 5.48703 6.15387C5.48703 6.08587 5.51404 6.02065 5.56213 5.97256C5.61021 5.92448 5.67543 5.89746 5.74344 5.89746C5.81144 5.89746 5.87666 5.92448 5.92474 5.97256C5.97283 6.02065 5.99985 6.08587 5.99985 6.15387C5.99985 6.22187 5.97283 6.28709 5.92474 6.33518C5.87666 6.38327 5.81144 6.41028 5.74344 6.41028ZM10.2562 6.41028C10.1882 6.41028 10.123 6.38327 10.0749 6.33518C10.0268 6.28709 9.99983 6.22187 9.99983 6.15387C9.99983 6.08587 10.0268 6.02065 10.0749 5.97256C10.123 5.92448 10.1882 5.89746 10.2562 5.89746C10.3242 5.89746 10.3895 5.92448 10.4376 5.97256C10.4856 6.02065 10.5127 6.08587 10.5127 6.15387C10.5127 6.22187 10.4856 6.28709 10.4376 6.33518C10.3895 6.38327 10.3242 6.41028 10.2562 6.41028Z" stroke="#003B65" stroke-linecap="round" stroke-linejoin="round"/>
</svg>
