<svg width="30" height="30" viewBox="0 0 30 30" fill="none" xmlns="http://www.w3.org/2000/svg">
<path d="M14.9999 28.3331C18.5361 28.3331 21.9275 26.9283 24.428 24.4279C26.9285 21.9274 28.3332 18.536 28.3332 14.9998C28.3332 11.4636 26.9285 8.07222 24.428 5.57174C21.9275 3.07126 18.5361 1.6665 14.9999 1.6665C11.4637 1.6665 8.07234 3.07126 5.57186 5.57174C3.07138 8.07222 1.66663 11.4636 1.66663 14.9998C1.66663 18.536 3.07138 21.9274 5.57186 24.4279C8.07234 26.9283 11.4637 28.3331 14.9999 28.3331Z" stroke="#003B65" stroke-width="2" stroke-linecap="round" stroke-linejoin="round"/>
<path d="M8.23035 17.0513C9.25598 20.7436 13.3585 23 17.0508 21.9744C19.3072 21.1539 21.1534 19.3077 21.7688 17.0513M10.4868 11.8206C10.3507 11.8206 10.2203 11.7665 10.1241 11.6704C10.028 11.5742 9.97393 11.4437 9.97393 11.3077C9.97393 11.1717 10.028 11.0413 10.1241 10.9451C10.2203 10.849 10.3507 10.7949 10.4868 10.7949C10.6228 10.7949 10.7532 10.849 10.8494 10.9451C10.9455 11.0413 10.9996 11.1717 10.9996 11.3077C10.9996 11.4437 10.9455 11.5742 10.8494 11.6704C10.7532 11.7665 10.6228 11.8206 10.4868 11.8206ZM19.5124 11.8206C19.3764 11.8206 19.2459 11.7665 19.1497 11.6704C19.0536 11.5742 18.9995 11.4437 18.9995 11.3077C18.9995 11.1717 19.0536 11.0413 19.1497 10.9451C19.2459 10.849 19.3764 10.7949 19.5124 10.7949C19.6484 10.7949 19.7788 10.849 19.875 10.9451C19.9712 11.0413 20.0252 11.1717 20.0252 11.3077C20.0252 11.4437 19.9712 11.5742 19.875 11.6704C19.7788 11.7665 19.6484 11.8206 19.5124 11.8206Z" stroke="#003B65" stroke-width="2" stroke-linecap="round" stroke-linejoin="round"/>
</svg>
