<svg width="210" height="210" viewBox="0 0 210 210" fill="none" xmlns="http://www.w3.org/2000/svg">
<path d="M31.1244 159.298C36.8364 173.236 46.1499 176.138 52.698 173.236C65.3618 167.626 98.258 161.356 132.044 176.092C176.791 195.61 186.311 166.163 172.03 136.377C157.75 106.591 152.909 76.4697 169.372 59.8743C185.835 43.279 164.292 17.3178 126.032 44.3416C101.307 61.8053 83.162 57.9166 73.4181 52.9797C64.2348 48.3269 54.0219 43.4625 44.4534 47.2606C32.843 51.8694 28.2681 61.8614 45.9328 84.1836C70.9651 115.816 18.3201 128.055 31.1244 159.298Z" fill="#DAE8F2"/>
<path d="M54.3828 91.3984H143.279V159.765C143.279 159.904 143.224 160.038 143.125 160.136C143.027 160.235 142.893 160.29 142.754 160.29H54.9078C54.7686 160.29 54.635 160.235 54.5366 160.136C54.4381 160.038 54.3828 159.904 54.3828 159.765V91.3984Z" fill="#003B65"/>
<path d="M120.978 64.6074H79.643L54.3828 91.3985H143.279L120.978 64.6074Z" fill="#142633"/>
<path d="M62.8027 53.8906L79.6428 64.6071L54.3827 91.3982L35.2461 76.8544L62.8027 53.8906Z" fill="#506473"/>
<path d="M137.819 53.8906L120.979 64.6071L143.28 91.3982L165.375 76.8544L137.819 53.8906Z" fill="#506473"/>
<path d="M90.5035 54.4381C90.9787 54.2127 91.3484 53.8125 91.5354 53.3209C91.7224 52.8294 91.7122 52.2845 91.5069 51.8004L83.9312 33.9369C83.8239 33.6839 83.6665 33.4552 83.4686 33.2645C83.2706 33.0739 83.0362 32.9252 82.7793 32.8275C82.5224 32.7298 82.2484 32.685 81.9738 32.6959C81.6992 32.7068 81.4296 32.7732 81.1812 32.8909L79.7217 33.583C79.4734 33.7007 79.2515 33.8675 79.0692 34.0732C78.887 34.2789 78.7482 34.5194 78.6613 34.7801C78.5744 35.0408 78.5411 35.3164 78.5634 35.5903C78.5857 35.8643 78.6632 36.1309 78.7911 36.3741L87.8262 53.5454C88.0711 54.0108 88.4864 54.3636 88.9854 54.5299C89.4843 54.6963 90.0282 54.6634 90.5035 54.4381Z" fill="#003B65"/>
<path d="M100.001 52.7071C100.345 52.6826 100.666 52.5262 100.897 52.2705C101.129 52.0148 101.252 51.6795 101.242 51.3349L100.868 38.6177C100.863 38.4376 100.821 38.2604 100.745 38.0967C100.67 37.9331 100.562 37.7865 100.428 37.6656C100.295 37.5447 100.138 37.4521 99.9675 37.3934C99.7971 37.3346 99.6167 37.3109 99.4369 37.3237L98.3803 37.399C98.2006 37.4118 98.0253 37.4607 97.8651 37.543C97.7048 37.6252 97.5628 37.739 97.4476 37.8775C97.3324 38.0161 97.2464 38.1764 97.1948 38.349C97.1431 38.5216 97.1269 38.7029 97.1471 38.8819L98.5779 51.5239C98.6166 51.8666 98.7863 52.1811 99.0515 52.4016C99.3167 52.6222 99.6568 52.7316 100.001 52.7071Z" fill="#003B65"/>
<path d="M107.333 57.4078C108.279 57.9547 109.607 57.4528 110.343 56.2698L123.423 35.2642C124.204 34.0094 124.019 32.4799 123.016 31.8998L121.617 31.0913C120.614 30.5111 119.196 31.1136 118.498 32.4167L106.817 54.2307C106.159 55.4593 106.387 56.8607 107.333 57.4078Z" fill="#003B65"/>
</svg>
