<svg width="165" height="167" viewBox="0 0 165 167" fill="none" xmlns="http://www.w3.org/2000/svg">
<path d="M144.809 60.5314C144.809 60.5314 120.957 77.7014 142.273 121.473C161.204 160.346 109.133 171.365 87.77 164.998C60.096 156.751 47.35 119.53 24.6854 128.74C2.02069 137.95 -14.3956 84.6903 18.8043 68.8893C60.1042 49.2337 36.3714 33.1924 41.5395 16.3507C45.2488 4.26316 82.899 -11.3378 100.101 12.2781C114.576 32.1501 123.176 26.3741 130.838 24.6494C141.888 22.1622 163.491 42.7517 144.809 60.5314Z" fill="#DAE8F2"/>
<path d="M145.094 75.8641L144.931 76.8812C144.794 77.7284 144.327 78.4869 143.632 78.9897C142.937 79.4926 142.07 79.6986 141.223 79.5625L141.148 79.5506C140.435 79.4359 139.703 79.5635 139.07 79.913C138.438 80.2626 137.94 80.8139 137.657 81.4791L114.712 135.443C114.05 137.003 112.885 138.296 111.402 139.116C109.92 139.936 108.205 140.235 106.532 139.967L42.5417 129.685C40.8315 129.415 39.2661 128.565 38.1073 127.278C36.9486 125.991 36.2668 124.346 36.176 122.617L32.9984 64.7547C32.9579 64.0172 32.6662 63.3156 32.1718 62.7668C31.6775 62.2179 31.0102 61.8547 30.2809 61.7375C29.8613 61.6701 29.4592 61.5208 29.0974 61.2979C28.7356 61.0751 28.4212 60.7832 28.1723 60.4389C27.9233 60.0946 27.7446 59.7046 27.6463 59.2912C27.548 58.8778 27.5322 58.4491 27.5996 58.0296L27.763 57.0126C27.8304 56.5931 27.9797 56.191 28.2025 55.8292C28.4254 55.4674 28.7173 55.153 29.0616 54.904C29.4059 54.655 29.7958 54.4763 30.2092 54.378C30.6226 54.2798 31.0513 54.2639 31.4708 54.3313L58.5776 58.6865C58.9939 58.7534 59.4207 58.6985 59.8066 58.5285C60.1924 58.3585 60.5209 58.0806 60.7525 57.7282L79.6846 28.9207C79.9351 28.5376 80.2912 28.2351 80.7098 28.0497C81.1284 27.8644 81.5917 27.8042 82.0438 27.8763C82.372 27.9271 82.6854 28.0484 82.9623 28.2318C83.2238 28.4029 83.4489 28.6238 83.6249 28.8819C83.801 29.14 83.9244 29.4303 83.9881 29.7362C84.0519 30.042 84.0547 30.3574 83.9965 30.6644C83.9383 30.9713 83.8201 31.2638 83.6488 31.5251L66.9617 56.9105C66.7611 57.2156 66.6401 57.5661 66.6097 57.9299C66.5794 58.2938 66.6406 58.6595 66.7878 58.9936C66.9349 59.3278 67.1635 59.6198 67.4524 59.843C67.7414 60.0662 68.0817 60.2135 68.4422 60.2714L104.519 66.0674C104.88 66.1254 105.249 66.0921 105.594 65.9706C105.938 65.8492 106.247 65.6434 106.491 65.3721C106.736 65.1007 106.908 64.7725 106.993 64.4173C107.078 64.0621 107.073 63.6912 106.978 63.3386L99.0692 34.0027C98.9095 33.3934 98.9968 32.7456 99.312 32.2003C99.6273 31.6549 100.145 31.256 100.753 31.0903C101.073 31.0027 101.409 30.9857 101.736 31.0404C102.188 31.1135 102.609 31.3158 102.949 31.6229C103.288 31.93 103.532 32.3288 103.65 32.7712L112.605 66.0593C112.715 66.4665 112.939 66.8333 113.253 67.1157C113.566 67.398 113.954 67.5838 114.37 67.6507L142.412 72.1562C142.832 72.2236 143.234 72.3729 143.596 72.5957C143.958 72.8185 144.272 73.1105 144.521 73.4548C144.77 73.7991 144.949 74.1891 145.047 74.6025C145.145 75.0159 145.161 75.4446 145.094 75.8641Z" fill="#003B65"/>
<path d="M60.1565 67.9372L53.09 66.8018C53.0327 66.7926 52.9789 66.8316 52.9697 66.8888L44.5477 119.305C44.5385 119.362 44.5774 119.416 44.6347 119.425L51.7012 120.561C51.7584 120.57 51.8123 120.531 51.8215 120.474L60.2435 68.0576C60.2527 68.0003 60.2138 67.9464 60.1565 67.9372Z" fill="#DAE8F2"/>
<path d="M118.653 77.1696L111.586 76.0342C111.529 76.025 111.475 76.064 111.466 76.1212L103.044 128.537C103.035 128.595 103.074 128.649 103.131 128.658L110.197 129.793C110.255 129.802 110.308 129.763 110.318 129.706L118.74 77.29C118.749 77.2327 118.71 77.1788 118.653 77.1696Z" fill="#DAE8F2"/>
<path d="M74.7087 70.2914L67.6447 69.1534C67.5874 69.1442 67.5335 69.1831 67.5243 69.2404L59.0832 121.639C59.074 121.696 59.1129 121.75 59.1702 121.759L66.2343 122.897C66.2915 122.906 66.3454 122.867 66.3546 122.81L74.7957 70.4117C74.8049 70.3545 74.766 70.3006 74.7087 70.2914Z" fill="#DAE8F2"/>
<path d="M89.4182 72.4714L82.3517 71.336C82.2945 71.3268 82.2406 71.3658 82.2314 71.423L73.8094 123.839C73.8002 123.896 73.8392 123.95 73.8964 123.959L80.9629 125.095C81.0202 125.104 81.074 125.065 81.0832 125.008L89.5052 72.5917C89.5144 72.5345 89.4754 72.4806 89.4182 72.4714Z" fill="#DAE8F2"/>
<path d="M104.035 74.821L96.9689 73.6856C96.9116 73.6764 96.8578 73.7154 96.8486 73.7726L88.4266 126.189C88.4174 126.246 88.4563 126.3 88.5136 126.309L95.5801 127.444C95.6373 127.454 95.6912 127.415 95.7004 127.357L104.122 74.9413C104.132 74.8841 104.093 74.8302 104.035 74.821Z" fill="#DAE8F2"/>
<rect x="124.936" y="117.463" width="40" height="40" rx="20" fill="white"/>
<path d="M156.26 134.292C156.26 141.322 145.989 147.012 145.551 147.247C145.436 147.31 145.307 147.343 145.176 147.343C145.045 147.343 144.916 147.31 144.801 147.247C144.364 147.012 134.092 141.322 134.092 134.292C134.094 132.641 134.741 131.058 135.891 129.891C137.041 128.724 138.601 128.067 140.228 128.065C142.271 128.065 144.061 128.957 145.176 130.465C146.291 128.957 148.081 128.065 150.124 128.065C151.751 128.067 153.311 128.724 154.461 129.891C155.612 131.058 156.259 132.641 156.26 134.292Z" fill="#003B65"/>
</svg>
